# xmcd CD database file
# Copyright (C) 1993-1998 Ti Kan
#
# Track frame offsets:
#  180
#  18101
#  36030
#  53339
#
# Disc length: 961 seconds
#
# Revision: 1
# Processed by: cddbd v1.4b41PL1 Copyright (c) Steve Scherf et al.
# Submitted via: CDWizzard Release:4.35
#
DISCID=1e03bf04
DTITLE=Le Bal du Pendu - Melodrame en IV actes
DYEAR=1900
DGENRE=
TTITLE0=L'Amour
TTITLE1=1-1
TTITLE2=Liquide
TTITLE3=Je Sais
EXTD=
EXTT0=
EXTT1=
EXTT2=
EXTT3=
PLAYORDER=
